# xmcd
#
# Track frame offsets: 
#        150
#        20950
#        33451
#        52415
#        68560
#        83073
#        106341
#        123433
#        139398
#        156679
#        173197
#        194315
#        209841
#        227935
#
# Disc length: 3145 seconds
#
# Revision: 0
# Processed by: cddbd v1.5.2PL0 Copyright (c) Steve Scherf et al.
# Submitted via: ExactAudioCopy v0.99pb5
#
DISCID=dc0c470e
DTITLE=Mietek Blues Band - Road
DYEAR=1998
DGENRE=Blues
TTITLE0=01.Cross road blues
TTITLE1=02.Blow wind blow
TTITLE2=03.Worried life blues
TTITLE3=04.Key to the highway
TTITLE4=05.Corrine corrina
TTITLE5=06.Hoochie coochie man
TTITLE6=07.Rock me baby
TTITLE7=08.From four until late
TTITLE8=09.Swing low sweet chariot
TTITLE9=10.Big boss man
TTITLE10=11.Malted milk
TTITLE11=12.Sweet home Chicago
TTITLE12=13.Tulsa time
TTITLE13=14.Road in the rain
EXTD=
EXTT0=
EXTT1=
EXTT2=
EXTT3=
EXTT4=
EXTT5=
EXTT6=
EXTT7=
EXTT8=
EXTT9=
EXTT10=
EXTT11=
EXTT12=
EXTT13=
PLAYORDER=
